
<svg aria-hidden="true" version="1.1" xmlns="http://www.w3.org/2000/svg">
<defs>
  <symbol fill="none"  viewBox="0 0 49 36" id="icon-mail2">
    <path d="M44.454 0H5.45404C2.92279 0 0.954044 2.0625 0.954044 4.5V31.5C0.954044 34.0312 2.92279 36 5.45404 36H44.454C46.8915 36 48.954 34.0312 48.954 31.5V4.5C48.954 2.0625 46.8915 0 44.454 0ZM44.454 4.5V8.34375C42.2978 10.125 38.9228 12.75 31.7978 18.375C30.204 19.5938 27.1103 22.5938 24.954 22.5C22.704 22.5938 19.6103 19.5938 18.0165 18.375C10.8915 12.75 7.51654 10.125 5.45404 8.34375V4.5H44.454ZM5.45404 31.5V14.1562C7.51654 15.8438 10.6103 18.2812 15.204 21.9375C17.2665 23.5312 20.9228 27.0938 24.954 27C28.8915 27.0938 32.454 23.5312 34.6103 21.9375C39.204 18.2812 42.2978 15.8438 44.454 14.1562V31.5H5.45404Z" fill="#F7654A"></path>
  </symbol>
  <symbol fill="none"  viewBox="0 0 49 49" id="icon-phone">
    <path d="M45.0115 3.15625L36.199 1.1875C34.1365 0.71875 32.074 1.75 31.324 3.625L27.199 13.1875C26.449 14.875 26.9177 16.9375 28.4177 18.1562L32.1677 21.25C29.5427 26.125 25.4177 30.1562 20.5427 32.875L17.449 29.125C16.2302 27.625 14.1677 27.1562 12.4802 27.9062L2.91773 31.9375C1.04273 32.7812 0.0114784 34.8438 0.480228 36.9062L2.44898 45.7188C2.91773 47.6875 4.69898 49 6.66773 49C29.6365 49 48.3865 30.4375 48.3865 7.375C48.3865 5.40625 46.9802 3.625 45.0115 3.15625ZM6.85523 44.5L4.88648 36.0625L14.074 32.125L19.324 38.5C28.6052 34.0938 33.3865 29.3125 37.7927 20.0312L31.4177 14.7812L35.3552 5.59375L43.8865 7.5625C43.7927 27.9062 27.199 44.4062 6.85523 44.5Z" fill="#F7654A"></path>
  </symbol>
  <symbol fill="none"  viewBox="0 0 37 49" id="icon-location">
    <path d="M18.6027 0C8.57148 0 0.602726 8.15625 0.602726 18C0.602726 24.75 2.75898 26.8125 14.759 45.9375C16.5402 48.75 20.5715 48.75 22.3527 45.9375C34.3527 26.8125 36.6027 24.75 36.6027 18C36.6027 8.0625 28.4465 0 18.6027 0ZM18.6027 43.5C6.60273 24.375 5.10273 23.1562 5.10273 18C5.10273 10.5938 11.1027 4.5 18.6027 4.5C26.009 4.5 32.1027 10.5938 32.1027 18C32.1027 23.1562 30.6027 24.1875 18.6027 43.5ZM11.1027 18C11.1027 22.2188 14.384 25.5 18.6027 25.5C22.7277 25.5 26.1027 22.2188 26.1027 18C26.1027 13.875 22.7277 10.5 18.6027 10.5C14.384 10.5 11.1027 13.875 11.1027 18Z" fill="#F7654A"></path>
  </symbol>
  <symbol fill="none"  viewBox="0 0 48 48" id="icon-clock">
    <path d="M24.1703 0.75C11.3265 0.75 0.920261 11.1562 0.920261 24C0.920261 36.8438 11.3265 47.25 24.1703 47.25C37.014 47.25 47.4203 36.8438 47.4203 24C47.4203 11.1562 37.014 0.75 24.1703 0.75ZM24.1703 42.75C13.764 42.75 5.42026 34.4062 5.42026 24C5.42026 13.6875 13.764 5.25 24.1703 5.25C34.4828 5.25 42.9203 13.6875 42.9203 24C42.9203 34.4062 34.4828 42.75 24.1703 42.75ZM29.889 33C30.4515 33.375 31.1078 33.2812 31.4828 32.7188L33.264 30.375C33.639 29.8125 33.5453 29.1562 32.9828 28.7812L26.7953 24.1875V10.875C26.7953 10.3125 26.2328 9.75 25.6703 9.75H22.6703C22.014 9.75 21.5453 10.3125 21.5453 10.875V26.3438C21.5453 26.625 21.639 27 21.9203 27.1875L29.889 33Z" fill="#F7654A"></path>
  </symbol>
  </defs>
</svg>
